<svg width="135" height="40" fill="none" xmlns="http://www.w3.org/2000/svg"><g clip-path="url(#clip0)"><path d="M130 0H5a5 5 0 00-5 5v30a5 5 0 005 5h125a5 5 0 005-5V5a5 5 0 00-5-5z" fill="#000"/><path d="M130 .8a4.2 4.2 0 014.2 4.2v30a4.198 4.198 0 01-4.2 4.2H5A4.2 4.2 0 01.8 35V5A4.2 4.2 0 015 .8h125zm0-.8H5a5 5 0 00-5 5v30a5 5 0 005 5h125a5.002 5.002 0 005-5V5a5.002 5.002 0 00-5-5z" fill="#A6A6A6"/><path d="M68.14 21.75A4.25 4.25 0 1072.41 26a4.19 4.19 0 00-4.27-4.25zm0 6.83a2.58 2.58 0 112.4-2.58 2.46 2.46 0 01-2.4 2.58zm-9.31-6.83A4.25 4.25 0 1063.09 26a4.19 4.19 0 00-4.27-4.25h.01zm0 6.83A2.58 2.58 0 1161.22 26a2.46 2.46 0 01-2.4 2.58h.01zm-11.09-5.52v1.8h4.32a3.77 3.77 0 01-1 2.27 4.422 4.422 0 01-3.33 1.32 4.8 4.8 0 010-9.6A4.6 4.6 0 0151 20.14l1.27-1.27A6.29 6.29 0 0047.74 17a6.61 6.61 0 100 13.21 6 6 0 004.61-1.85 6 6 0 001.56-4.22 5.875 5.875 0 00-.1-1.13l-6.07.05zm45.31 1.4a4 4 0 00-3.64-2.71 4.001 4.001 0 00-4 4.25 4.16 4.16 0 004.22 4.25 4.23 4.23 0 003.54-1.88l-1.45-1a2.43 2.43 0 01-2.09 1.18 2.16 2.16 0 01-2.06-1.29l5.69-2.35-.21-.45zm-5.8 1.42a2.33 2.33 0 012.22-2.48 1.65 1.65 0 011.58.9l-3.8 1.58zM82.63 30h1.87V17.5h-1.87V30zm-3.06-7.3h-.07a3 3 0 00-2.24-1 4.26 4.26 0 000 8.51 2.9 2.9 0 002.24-1h.06v.61c0 1.63-.87 2.5-2.27 2.5a2.35 2.35 0 01-2.14-1.51l-1.63.68A4.05 4.05 0 0077.29 34c2.19 0 4-1.29 4-4.43V22h-1.72v.7zm-2.14 5.88a2.59 2.59 0 010-5.16A2.402 2.402 0 0179.7 26a2.38 2.38 0 01-2.28 2.58h.01zm24.38-11.08h-4.48V30h1.87v-4.74h2.61a3.889 3.889 0 100-7.76zm0 6H99.2v-4.26h2.65a2.145 2.145 0 110 4.29l-.04-.03zm11.53-1.8a3.498 3.498 0 00-3.33 1.91l1.66.69a1.777 1.777 0 011.7-.92 1.804 1.804 0 011.792.931c.114.21.184.441.208.679v.13a4.13 4.13 0 00-1.95-.48c-1.79 0-3.6 1-3.6 2.81a2.904 2.904 0 00.969 2.03 2.892 2.892 0 002.131.72 2.634 2.634 0 002.4-1.2h.06v1h1.8v-4.81c0-2.19-1.66-3.46-3.79-3.46l-.05-.03zm-.23 6.85c-.61 0-1.46-.31-1.46-1.06 0-1 1.06-1.33 2-1.33a3.32 3.32 0 011.7.42 2.26 2.26 0 01-2.19 2l-.05-.03zM123.74 22l-2.14 5.42h-.06L119.32 22h-2l3.33 7.58-1.9 4.21h1.95L125.82 22h-2.08zm-16.81 8h1.87V17.5h-1.87V30z" fill="#fff"/><path d="M10.44 7.54a2 2 0 00-.44 1.4v22.12a2 2 0 00.46 1.4l.07.07L22.9 20.15v-.29L10.51 7.47l-.07.07z" fill="url(#paint0_linear)"/><path d="M27 24.28l-4.1-4.13v-.29l4.1-4.14.09.05L32 18.56c1.4.79 1.4 2.09 0 2.89l-4.89 2.78-.11.05z" fill="url(#paint1_linear)"/><path d="M27.12 24.23L22.9 20 10.44 32.46a1.63 1.63 0 002.08.06l14.61-8.3" fill="url(#paint2_linear)"/><path d="M27.12 15.78l-14.61-8.3a1.63 1.63 0 00-2.08.06L22.9 20l4.22-4.22z" fill="url(#paint3_linear)"/><path opacity=".2" d="M27 24.13l-14.49 8.25a1.67 1.67 0 01-2 0l-.07.07.07.07a1.66 1.66 0 002 0l14.61-8.3-.12-.09z" fill="#000"/><path opacity=".12" d="M10.44 32.32a2 2 0 01-.46-1.4v.15a2 2 0 00.46 1.4l.07-.07-.07-.08zM32 21.3l-5 2.83.09.09L32 21.44A1.75 1.75 0 0033 20a1.86 1.86 0 01-1 1.3z" fill="#000"/><path opacity=".25" d="M12.51 7.62L32 18.7a1.858 1.858 0 011 1.3 1.75 1.75 0 00-1-1.44L12.51 7.48C11.12 6.68 10 7.34 10 8.94v.15c0-1.6 1.12-2.26 2.51-1.47z" fill="#fff"/><path d="M42.11 14.27h-.74v-2H42a2.86 2.86 0 00.76-2.3V7h4v5.26h.67v2h-.74V13h-4.58v1.27zM43.5 10a4 4 0 01-.57 2.3h3V7.74H43.5V10zM53.41 12.22a3.12 3.12 0 01-4.4 0 3.07 3.07 0 01-.88-2.22A3.068 3.068 0 0149 7.78a3.1 3.1 0 014.4 0 3.072 3.072 0 01.9 2.22 3.072 3.072 0 01-.89 2.22zm-3.83-.5a2.31 2.31 0 003.26 0 2.349 2.349 0 00.67-1.72 2.35 2.35 0 00-.67-1.72 2.31 2.31 0 00-3.26 0 2.35 2.35 0 00-.66 1.72 2.35 2.35 0 00.66 1.72zM58.18 13.13A3.059 3.059 0 0155.06 10a3.06 3.06 0 013.12-3.13 2.77 2.77 0 012.2 1l-.54.52a2 2 0 00-1.67-.76 2.27 2.27 0 00-1.66.66 2.319 2.319 0 00-.66 1.71 2.32 2.32 0 00.67 1.73 2.269 2.269 0 001.66.66 2.37 2.37 0 001.82-.86l.54.54c-.272.33-.614.596-1 .78a3.15 3.15 0 01-1.36.28zM63.68 13h-.77V7.74h-1.68V7h4.12v.74h-1.67V13zM70.65 7l-2.27 5.06A1.51 1.51 0 0167 13.13a1.54 1.54 0 01-.6-.13l.2-.71a.81.81 0 00.4.11.71.71 0 00.41-.1.94.94 0 00.27-.38l.22-.48L65.87 7h.91l1.48 3.44L69.74 7h.91zM71.52 13V7h4.34v6h-.77V7.74h-2.8V13h-.77zM77.23 13V7H78v2.57h3V7h.77v6H81v-2.71h-3V13h-.77zM88.06 12.22a3.12 3.12 0 01-4.4 0 3.072 3.072 0 01-.89-2.22 3.068 3.068 0 01.88-2.22 3.1 3.1 0 015.07 1.02c.153.381.228.79.22 1.2a3.07 3.07 0 01-.88 2.22zm-3.83-.5a2.31 2.31 0 003.26 0 2.35 2.35 0 00.66-1.72 2.35 2.35 0 00-.67-1.72 2.31 2.31 0 00-3.26 0 2.35 2.35 0 00-.66 1.72 2.35 2.35 0 00.67 1.72zM92.09 13V7h2.17a1.76 1.76 0 011.22.46A1.512 1.512 0 0196 8.63a1.31 1.31 0 01-.22.75 1.39 1.39 0 01-.59.49c.29.096.544.277.73.52.19.242.292.542.29.85a1.57 1.57 0 01-.54 1.22 1.85 1.85 0 01-1.28.49l-2.3.05zm.77-3.43h1.4a.9.9 0 00.7-.29A.89.89 0 0095 8a.86.86 0 00-.67-.29h-1.47v1.86zm0 2.69h1.55a.919.919 0 00.72-.31 1 1 0 00.28-.68 1 1 0 00-1-1h-1.55v1.99z" fill="#fff" stroke="#fff" stroke-width=".2" stroke-miterlimit="10"/></g><defs><linearGradient id="paint0_linear" x1="21.8" y1="8.71" x2="5.02" y2="25.49" gradientUnits="userSpaceOnUse"><stop stop-color="#00A0FF"/><stop offset=".01" stop-color="#00A1FF"/><stop offset=".26" stop-color="#00BEFF"/><stop offset=".51" stop-color="#00D2FF"/><stop offset=".76" stop-color="#00DFFF"/><stop offset="1" stop-color="#00E3FF"/></linearGradient><linearGradient id="paint1_linear" x1="33.83" y1="20" x2="9.64" y2="20" gradientUnits="userSpaceOnUse"><stop stop-color="#FFE000"/><stop offset=".41" stop-color="#FFBD00"/><stop offset=".78" stop-color="orange"/><stop offset="1" stop-color="#FF9C00"/></linearGradient><linearGradient id="paint2_linear" x1="24.83" y1="22.3" x2="2.07" y2="45.05" gradientUnits="userSpaceOnUse"><stop stop-color="#FF3A44"/><stop offset="1" stop-color="#C31162"/></linearGradient><linearGradient id="paint3_linear" x1="7.3" y1=".18" x2="17.46" y2="10.34" gradientUnits="userSpaceOnUse"><stop stop-color="#32A071"/><stop offset=".07" stop-color="#2DA771"/><stop offset=".48" stop-color="#15CF74"/><stop offset=".8" stop-color="#06E775"/><stop offset="1" stop-color="#00F076"/></linearGradient><clipPath id="clip0"><path fill="#fff" d="M0 0h135v40H0z"/></clipPath></defs></svg>